<svg xmlns="http://www.w3.org/2000/svg" xmlns:xlink="http://www.w3.org/1999/xlink" width="1850" height="651.3"><rect width="1850" height="651.3" rx="0" ry="0" class="a"/><svg height="651.3" viewBox="0 0 185 65.13" width="1850" xmlns="http://www.w3.org/2000/svg" xmlns:xlink="http://www.w3.org/1999/xlink"><style>@keyframes i{0%{transform:translateX(0)}.1%{transform:translateX(-185px)}4.4%{transform:translateX(-370px)}4.8%{transform:translateX(-555px)}5.6%{transform:translateX(-740px)}6.2%{transform:translateX(-925px)}6.6%{transform:translateX(-1110px)}7.4%{transform:translateX(-1295px)}8%{transform:translateX(-1480px)}8.8%{transform:translateX(-1665px)}10%{transform:translateX(-1850px)}10.4%{transform:translateX(-2035px)}10.7%{transform:translateX(-2220px)}11.5%{transform:translateX(-2405px)}11.8%{transform:translateX(-2590px)}15.2%{transform:translateX(-2775px)}21.8%{transform:translateX(-3330px)}28.5%{transform:translateX(-4070px)}29%{transform:translateX(-4440px)}29.6%{transform:translateX(-4810px)}30.4%{transform:translateX(-5180px)}32%{transform:translateX(-5550px)}32.2%{transform:translateX(-5920px)}42.3%{transform:translateX(-6290px)}47.3%{transform:translateX(-6845px)}47.4%{transform:translateX(-7215px)}52.9%{transform:translateX(-8510px)}61.4%{transform:translateX(-9435px)}65.3%{transform:translateX(-9805px)}65.4%{transform:translateX(-10360px)}73.6%{transform:translateX(-10730px)}74.8%{transform:translateX(-11100px)}75.3%{transform:translateX(-11470px)}76.3%{transform:translateX(-12025px)}77%{transform:translateX(-12580px)}77.5%{transform:translateX(-12950px)}80.3%{transform:translateX(-13320px)}81%{transform:translateX(-14245px)}86.5%{transform:translateX(-15170px)}90%{transform:translateX(-15540px)}to{transform:translateX(-15910px)}}.a{fill:#282d35}.c{fill:#b9c0cb}.d{fill:#a8cc8c}.e{fill:#b9c0cb;font-weight:700}.f{fill:#66c2cd}</style><g font-size="1.67" font-family="Monaco,Consolas,Menlo,'Bitstream Vera Sans Mono','Powerline Symbols',monospace"><defs><symbol id="1"><text y="1.67" class="c">bash-3.2$</text><text x="10.02" y="1.67" class="c">liquid</text></symbol><symbol id="2"><text y="1.67" class="c">bash-3.2$</text><text x="10.02" y="1.67" class="c">liquid</text><text x="17.034" y="1.67" class="c">create</text></symbol><symbol id="3"><text y="1.67" class="d">?</text><text x="2.004" y="1.67" class="e">Name:</text><text x="8.016" y="1.67" class="c">(LINODE)</text></symbol><symbol id="4"><text y="1.67" class="d">?</text><text x="2.004" y="1.67" class="e">Name:</text><text x="8.016" y="1.67" class="c">L</text></symbol><symbol id="5"><text y="1.67" class="d">?</text><text x="2.004" y="1.67" class="e">Name:</text><text x="8.016" y="1.67" class="c">LINODE</text></symbol><symbol id="6"><text y="1.67" class="d">?</text><text x="2.004" y="1.67" class="e">Type:</text><text x="8.016" y="1.67" class="c">(Use</text><text x="13.026" y="1.67" class="c">arrow</text><text x="19.038" y="1.67" class="c">keys)</text></symbol><symbol id="7"><text y="1.67" class="f">❯</text><text x="2.004" y="1.67" class="f">Nanode</text><text x="9.018" y="1.67" class="f">1GB</text><text x="13.026" y="1.67" class="f">(g6-nanode-1)</text></symbol><symbol id="8"><text x="2.004" y="1.67" class="c">Linode</text><text x="9.018" y="1.67" class="c">2GB</text><text x="13.026" y="1.67" class="c">(g6-standard-1)</text></symbol><symbol id="9"><text x="2.004" y="1.67" class="c">Linode</text><text x="9.018" y="1.67" class="c">4GB</text><text x="13.026" y="1.67" class="c">(g6-standard-2)</text></symbol><symbol id="10"><text x="2.004" y="1.67" class="c">Linode</text><text x="9.018" y="1.67" class="c">8GB</text><text x="13.026" y="1.67" class="c">(g6-standard-4)</text></symbol><symbol id="11"><text x="2.004" y="1.67" class="c">Linode</text><text x="9.018" y="1.67" class="c">16GB</text><text x="14.028" y="1.67" class="c">(g6-standard-6)</text></symbol><symbol id="12"><text x="2.004" y="1.67" class="c">Linode</text><text x="9.018" y="1.67" class="c">32GB</text><text x="14.028" y="1.67" class="c">(g6-standard-8)</text></symbol><symbol id="13"><text x="2.004" y="1.67" class="c">Linode</text><text x="9.018" y="1.67" class="c">64GB</text><text x="14.028" y="1.67" class="c">(g6-standard-16)</text></symbol><symbol id="14"><text y="1.67" class="c">(Move</text><text x="6.012" y="1.67" class="c">up</text><text x="9.018" y="1.67" class="c">and</text><text x="13.026" y="1.67" class="c">down</text><text x="18.036" y="1.67" class="c">to</text><text x="21.042" y="1.67" class="c">reveal</text><text x="28.056" y="1.67" class="c">more</text><text x="33.066" y="1.67" class="c">choices)</text></symbol><symbol id="15"><text y="1.67" class="d">?</text><text x="2.004" y="1.67" class="e">Type:</text><text x="8.016" y="1.67" class="f">Nanode</text><text x="15.03" y="1.67" class="f">1GB</text><text x="19.038" y="1.67" class="f">(g6-nanode-1)</text></symbol><symbol id="16"><text y="1.67" class="d">?</text><text x="2.004" y="1.67" class="e">Region:</text><text x="10.02" y="1.67" class="c">(Use</text><text x="15.03" y="1.67" class="c">arrow</text><text x="21.042" y="1.67" class="c">keys)</text></symbol><symbol id="17"><text x="2.004" y="1.67" class="c">US</text><text x="5.01" y="1.67" class="c">(us-west)</text></symbol><symbol id="18"><text x="2.004" y="1.67" class="c">US</text><text x="5.01" y="1.67" class="c">(us-southeast)</text></symbol><symbol id="19"><text x="2.004" y="1.67" class="c">US</text><text x="5.01" y="1.67" class="c">(us-east)</text></symbol><symbol id="20"><text y="1.67" class="f">❯</text><text x="2.004" y="1.67" class="f">UK</text><text x="5.01" y="1.67" class="f">(eu-west)</text></symbol><symbol id="21"><text x="2.004" y="1.67" class="c">SG</text><text x="5.01" y="1.67" class="c">(ap-south)</text></symbol><symbol id="22"><text x="2.004" y="1.67" class="c">DE</text><text x="5.01" y="1.67" class="c">(eu-central)</text></symbol><symbol id="23"><text x="2.004" y="1.67" class="c">JP</text><text x="5.01" y="1.67" class="c">(ap-northeast)</text></symbol><symbol id="24"><text y="1.67" class="d">?</text><text x="2.004" y="1.67" class="e">Region:</text><text x="10.02" y="1.67" class="f">UK</text><text x="13.026" y="1.67" class="f">(eu-west)</text></symbol><symbol id="25"><text y="1.67" class="d">?</text><text x="2.004" y="1.67" class="e">Image:</text><text x="9.018" y="1.67" class="c">(Use</text><text x="14.028" y="1.67" class="c">arrow</text><text x="20.04" y="1.67" class="c">keys)</text></symbol><symbol id="26"><text x="2.004" y="1.67" class="c">CentOS</text><text x="9.018" y="1.67" class="c">7</text><text x="11.022" y="1.67" class="c">(linode/centos7)</text></symbol><symbol id="27"><text x="2.004" y="1.67" class="c">CoreOS</text><text x="9.018" y="1.67" class="c">Container</text><text x="19.038" y="1.67" class="c">Linux</text><text x="25.05" y="1.67" class="c">(linode/containerlinux)</text></symbol><symbol id="28"><text x="2.004" y="1.67" class="c">Debian</text><text x="9.018" y="1.67" class="c">8</text><text x="11.022" y="1.67" class="c">(linode/debian8)</text></symbol><symbol id="29"><text y="1.67" class="f">❯</text><text x="2.004" y="1.67" class="f">Debian</text><text x="9.018" y="1.67" class="f">9</text><text x="11.022" y="1.67" class="f">(linode/debian9)</text></symbol><symbol id="30"><text x="2.004" y="1.67" class="c">Fedora</text><text x="9.018" y="1.67" class="c">27</text><text x="12.024" y="1.67" class="c">(linode/fedora27)</text></symbol><symbol id="31"><text x="2.004" y="1.67" class="c">Fedora</text><text x="9.018" y="1.67" class="c">28</text><text x="12.024" y="1.67" class="c">(linode/fedora28)</text></symbol><symbol id="32"><text x="2.004" y="1.67" class="c">Fedora</text><text x="9.018" y="1.67" class="c">29</text><text x="12.024" y="1.67" class="c">(linode/fedora29)</text></symbol><symbol id="33"><text y="1.67" class="d">?</text><text x="2.004" y="1.67" class="e">Image:</text><text x="9.018" y="1.67" class="f">Debian</text><text x="16.032" y="1.67" class="f">9</text><text x="18.036" y="1.67" class="f">(linode/debian9)</text></symbol><symbol id="34"><text y="1.67" class="d">?</text><text x="2.004" y="1.67" class="e">Password</text><text x="11.022" y="1.67" class="c">[input</text><text x="18.036" y="1.67" class="c">is</text><text x="21.042" y="1.67" class="c">hidden]</text></symbol><symbol id="35"><text y="1.67" class="d">?</text><text x="2.004" y="1.67" class="e">Password</text><text x="11.022" y="1.67" class="c">[hidden]</text></symbol><symbol id="36"><text y="1.67" class="d">?</text><text x="2.004" y="1.67" class="e">Backups?</text><text x="11.022" y="1.67" class="c">(y/N)</text></symbol><symbol id="37"><text y="1.67" class="d">?</text><text x="2.004" y="1.67" class="e">Backups?</text><text x="11.022" y="1.67" class="f">No</text></symbol><symbol id="38"><text y="1.67" class="d">?</text><text x="2.004" y="1.67" class="e">Boot?</text><text x="8.016" y="1.67" class="c">(y/N)</text></symbol><symbol id="39"><text y="1.67" class="d">?</text><text x="2.004" y="1.67" class="e">Boot?</text><text x="8.016" y="1.67" class="f">No</text></symbol><symbol id="40"><text y="1.67" class="d">✔</text><text x="2.004" y="1.67" class="c">Linode:</text><text x="10.02" y="1.67" class="c">LINODE</text><text x="17.034" y="1.67" class="c">(id:</text><text x="22.044" y="1.67" class="c">12348375)</text><text x="32.064" y="1.67" class="c">has</text><text x="36.072" y="1.67" class="c">been</text><text x="41.082" y="1.67" class="c">assigned</text><text x="50.1" y="1.67" class="c">the</text><text x="54.108" y="1.67" class="c">IP:</text><text x="58.116" y="1.67" class="c">178.79.147.231,</text><text x="74.148" y="1.67" class="c">is</text><text x="77.154" y="1.67" class="c">currently</text><text x="87.174" y="1.67" class="c">provisioning</text><text x="100.2" y="1.67" class="c">but</text><text x="104.208" y="1.67" class="c">will</text><text x="109.218" y="1.67" class="c">not</text><text x="113.226" y="1.67" class="c">boot.</text></symbol><symbol id="a"><path fill="transparent" d="M0 0h185v30H0z"/></symbol><symbol id="b"><path fill="#6f7683" d="M0 0h1.102v2.171H0z"/></symbol></defs><path class="a" d="M0 0h185v65.13H0z"/><g style="animation-duration:16.449577s;animation-iteration-count:infinite;animation-name:i;animation-timing-function:steps(1,end)"><svg width="16095"><svg><use xlink:href="#a"/><use xlink:href="#b" x="-.004"/></svg><svg x="185"><use xlink:href="#a"/><use xlink:href="#b" x="9.996"/><text y="1.67" class="c">bash-3.2$</text></svg><svg x="370"><use xlink:href="#a"/><use xlink:href="#b" x="10.996"/><text y="1.67" class="c">bash-3.2$</text><text x="10.02" y="1.67" class="c">l</text></svg><svg x="555"><use xlink:href="#a"/><use xlink:href="#b" x="11.996"/><text y="1.67" class="c">bash-3.2$</text><text x="10.02" y="1.67" class="c">li</text></svg><svg x="740"><use xlink:href="#a"/><use xlink:href="#b" x="12.996"/><text y="1.67" class="c">bash-3.2$</text><text x="10.02" y="1.67" class="c">liq</text></svg><svg x="925"><use xlink:href="#a"/><use xlink:href="#b" x="13.996"/><text y="1.67" class="c">bash-3.2$</text><text x="10.02" y="1.67" class="c">liqu</text></svg><svg x="1110"><use xlink:href="#a"/><use xlink:href="#b" x="14.996"/><text y="1.67" class="c">bash-3.2$</text><text x="10.02" y="1.67" class="c">liqui</text></svg><svg x="1295"><use xlink:href="#a"/><use xlink:href="#b" x="15.996"/><use xlink:href="#1"/></svg><svg x="1480"><use xlink:href="#a"/><use xlink:href="#b" x="16.996"/><use xlink:href="#1"/></svg><svg x="1665"><use xlink:href="#a"/><use xlink:href="#b" x="17.996"/><text y="1.67" class="c">bash-3.2$</text><text x="10.02" y="1.67" class="c">liquid</text><text x="17.034" y="1.67" class="c">c</text></svg><svg x="1850"><use xlink:href="#a"/><use xlink:href="#b" x="18.996"/><text y="1.67" class="c">bash-3.2$</text><text x="10.02" y="1.67" class="c">liquid</text><text x="17.034" y="1.67" class="c">cr</text></svg><svg x="2035"><use xlink:href="#a"/><use xlink:href="#b" x="19.996"/><text y="1.67" class="c">bash-3.2$</text><text x="10.02" y="1.67" class="c">liquid</text><text x="17.034" y="1.67" class="c">cre</text></svg><svg x="2220"><use xlink:href="#a"/><use xlink:href="#b" x="20.996"/><text y="1.67" class="c">bash-3.2$</text><text x="10.02" y="1.67" class="c">liquid</text><text x="17.034" y="1.67" class="c">crea</text></svg><svg x="2405"><use xlink:href="#a"/><use xlink:href="#b" x="21.996"/><text y="1.67" class="c">bash-3.2$</text><text x="10.02" y="1.67" class="c">liquid</text><text x="17.034" y="1.67" class="c">creat</text></svg><svg x="2590"><use xlink:href="#a"/><use xlink:href="#b" x="22.996"/><use xlink:href="#2"/></svg><svg x="2775"><use xlink:href="#a"/><use xlink:href="#b" x="-.004" y="2.146"/><use xlink:href="#2"/></svg><svg x="2960"><use xlink:href="#a"/><use xlink:href="#b" x="16.996" y="2.146"/><use xlink:href="#2"/><use xlink:href="#3" y="2.171"/></svg><svg x="3145"><use xlink:href="#a"/><use xlink:href="#b" x="-.004" y="2.146"/><use xlink:href="#2"/><use xlink:href="#3" y="2.171"/></svg><svg x="3330"><use xlink:href="#a"/><use xlink:href="#b" x="16.996" y="2.146"/><use xlink:href="#2"/><use xlink:href="#3" y="2.171"/></svg><svg x="3515"><use xlink:href="#a"/><use xlink:href="#b" x="-.004" y="2.146"/><use xlink:href="#2"/></svg><svg x="3700"><use xlink:href="#a"/><use xlink:href="#b" x="8.996" y="2.146"/><use xlink:href="#2"/><use xlink:href="#4" y="2.171"/></svg><svg x="3885"><use xlink:href="#a"/><use xlink:href="#b" x="-.004" y="2.146"/><use xlink:href="#2"/><use xlink:href="#4" y="2.171"/></svg><svg x="4070"><use xlink:href="#a"/><use xlink:href="#b" x="8.996" y="2.146"/><use xlink:href="#2"/><use xlink:href="#4" y="2.171"/></svg><svg x="4255"><use xlink:href="#a"/><use xlink:href="#b" x="-.004" y="2.146"/><use xlink:href="#2"/></svg><svg x="4440"><use xlink:href="#a"/><use xlink:href="#b" x="9.996" y="2.146"/><use xlink:href="#2"/><text y="3.841" class="d">?</text><text x="2.004" y="3.841" class="e">Name:</text><text x="8.016" y="3.841" class="c">LI</text></svg><svg x="4625"><use xlink:href="#a"/><use xlink:href="#b" x="-.004" y="2.146"/><use xlink:href="#2"/></svg><svg x="4810"><use xlink:href="#a"/><use xlink:href="#b" x="10.996" y="2.146"/><use xlink:href="#2"/><text y="3.841" class="d">?</text><text x="2.004" y="3.841" class="e">Name:</text><text x="8.016" y="3.841" class="c">LIN</text></svg><svg x="4995"><use xlink:href="#a"/><use xlink:href="#b" x="-.004" y="2.146"/><use xlink:href="#2"/></svg><svg x="5180"><use xlink:href="#a"/><use xlink:href="#b" x="11.996" y="2.146"/><use xlink:href="#2"/><text y="3.841" class="d">?</text><text x="2.004" y="3.841" class="e">Name:</text><text x="8.016" y="3.841" class="c">LINO</text></svg><svg x="5365"><use xlink:href="#a"/><use xlink:href="#b" x="-.004" y="2.146"/><use xlink:href="#2"/></svg><svg x="5550"><use xlink:href="#a"/><use xlink:href="#b" x="12.996" y="2.146"/><use xlink:href="#2"/><text y="3.841" class="d">?</text><text x="2.004" y="3.841" class="e">Name:</text><text x="8.016" y="3.841" class="c">LINOD</text></svg><svg x="5735"><use xlink:href="#a"/><use xlink:href="#b" x="-.004" y="2.146"/><use xlink:href="#2"/></svg><svg x="5920"><use xlink:href="#a"/><use xlink:href="#b" x="13.996" y="2.146"/><use xlink:href="#2"/><use xlink:href="#5" y="2.171"/></svg><svg x="6105"><use xlink:href="#a"/><use xlink:href="#b" x="-.004" y="2.146"/><use xlink:href="#2"/></svg><svg x="6290"><use xlink:href="#a"/><use xlink:href="#b" x="13.996" y="2.146"/><use xlink:href="#2"/><use xlink:href="#5" y="2.171"/></svg><svg x="6475"><use xlink:href="#a"/><use xlink:href="#b" x="16.996" y="2.146"/><use xlink:href="#2"/><use xlink:href="#5" y="2.171"/></svg><svg x="6660"><use xlink:href="#a"/><use xlink:href="#b" x="-.004" y="4.317"/><use xlink:href="#2"/><use xlink:href="#5" y="2.171"/></svg><svg x="6845"><use xlink:href="#a"/><use xlink:href="#2"/><use xlink:href="#5" y="2.171"/></svg><svg x="7030"><use xlink:href="#a"/><use xlink:href="#2"/><use xlink:href="#5" y="2.171"/><use xlink:href="#6" y="4.342"/><use xlink:href="#7" y="6.513"/><use xlink:href="#8" y="8.684"/><use xlink:href="#9" y="10.855"/><use xlink:href="#10" y="13.026"/><use xlink:href="#11" y="15.197"/><use xlink:href="#12" y="17.368"/><use xlink:href="#13" y="19.539"/><use xlink:href="#14" y="21.71"/></svg><svg x="7215"><use xlink:href="#a"/><use xlink:href="#2"/><use xlink:href="#5" y="2.171"/><use xlink:href="#6" y="4.342"/><use xlink:href="#7" y="6.513"/><use xlink:href="#8" y="8.684"/><use xlink:href="#9" y="10.855"/><use xlink:href="#10" y="13.026"/><use xlink:href="#11" y="15.197"/><use xlink:href="#12" y="17.368"/><use xlink:href="#13" y="19.539"/><use xlink:href="#14" y="21.71"/></svg><svg x="7400"><use xlink:href="#a"/><use xlink:href="#2"/><use xlink:href="#5" y="2.171"/></svg><svg x="7585"><use xlink:href="#a"/><use xlink:href="#2"/><use xlink:href="#5" y="2.171"/><use xlink:href="#15" y="4.342"/></svg><svg x="7770"><use xlink:href="#a"/><use xlink:href="#2"/><use xlink:href="#5" y="2.171"/><use xlink:href="#15" y="4.342"/></svg><svg x="7955"><use xlink:href="#a"/><use xlink:href="#b" x="-.004" y="6.488"/><use xlink:href="#2"/><use xlink:href="#5" y="2.171"/><use xlink:href="#15" y="4.342"/></svg><svg x="8140"><use xlink:href="#a"/><use xlink:href="#2"/><use xlink:href="#5" y="2.171"/><use xlink:href="#15" y="4.342"/></svg><svg x="8325"><use xlink:href="#a"/><use xlink:href="#2"/><use xlink:href="#5" y="2.171"/><use xlink:href="#15" y="4.342"/><use xlink:href="#16" y="6.513"/><use xlink:href="#17" y="8.684"/><use xlink:href="#18" y="10.855"/><use xlink:href="#19" y="13.026"/><use xlink:href="#20" y="15.197"/><use xlink:href="#21" y="17.368"/><use xlink:href="#22" y="19.539"/><use xlink:href="#23" y="21.71"/><use xlink:href="#14" y="23.881"/></svg><svg x="8510"><use xlink:href="#a"/><use xlink:href="#2"/><use xlink:href="#5" y="2.171"/><use xlink:href="#15" y="4.342"/><use xlink:href="#16" y="6.513"/><use xlink:href="#17" y="8.684"/><use xlink:href="#18" y="10.855"/><use xlink:href="#19" y="13.026"/><use xlink:href="#20" y="15.197"/><use xlink:href="#21" y="17.368"/><use xlink:href="#22" y="19.539"/><use xlink:href="#23" y="21.71"/><use xlink:href="#14" y="23.881"/></svg><svg x="8695"><use xlink:href="#a"/><use xlink:href="#2"/><use xlink:href="#5" y="2.171"/><use xlink:href="#15" y="4.342"/></svg><svg x="8880"><use xlink:href="#a"/><use xlink:href="#b" x="-.004" y="8.659"/><use xlink:href="#2"/><use xlink:href="#5" y="2.171"/><use xlink:href="#15" y="4.342"/><use xlink:href="#24" y="6.513"/></svg><svg x="9065"><use xlink:href="#a"/><use xlink:href="#2"/><use xlink:href="#5" y="2.171"/><use xlink:href="#15" y="4.342"/><use xlink:href="#24" y="6.513"/></svg><svg x="9250"><use xlink:href="#a"/><use xlink:href="#2"/><use xlink:href="#5" y="2.171"/><use xlink:href="#15" y="4.342"/><use xlink:href="#24" y="6.513"/><use xlink:href="#25" y="8.684"/><use xlink:href="#26" y="10.855"/><use xlink:href="#27" y="13.026"/><use xlink:href="#28" y="15.197"/><use xlink:href="#29" y="17.368"/><use xlink:href="#30" y="19.539"/><use xlink:href="#31" y="21.71"/><use xlink:href="#32" y="23.881"/><use xlink:href="#14" y="26.052"/></svg><svg x="9435"><use xlink:href="#a"/><use xlink:href="#2"/><use xlink:href="#5" y="2.171"/><use xlink:href="#15" y="4.342"/><use xlink:href="#24" y="6.513"/><use xlink:href="#25" y="8.684"/><use xlink:href="#26" y="10.855"/><use xlink:href="#27" y="13.026"/><use xlink:href="#28" y="15.197"/><use xlink:href="#29" y="17.368"/><use xlink:href="#30" y="19.539"/><use xlink:href="#31" y="21.71"/><use xlink:href="#32" y="23.881"/><use xlink:href="#14" y="26.052"/></svg><svg x="9620"><use xlink:href="#a"/><use xlink:href="#2"/><use xlink:href="#5" y="2.171"/><use xlink:href="#15" y="4.342"/><use xlink:href="#24" y="6.513"/></svg><svg x="9805"><use xlink:href="#a"/><use xlink:href="#2"/><use xlink:href="#5" y="2.171"/><use xlink:href="#15" y="4.342"/><use xlink:href="#24" y="6.513"/><use xlink:href="#33" y="8.684"/></svg><svg x="9990"><use xlink:href="#a"/><use xlink:href="#b" x="-.004" y="10.83"/><use xlink:href="#2"/><use xlink:href="#5" y="2.171"/><use xlink:href="#15" y="4.342"/><use xlink:href="#24" y="6.513"/><use xlink:href="#33" y="8.684"/></svg><svg x="10175"><use xlink:href="#a"/><use xlink:href="#b" x="-.004" y="10.83"/><use xlink:href="#2"/><use xlink:href="#5" y="2.171"/><use xlink:href="#15" y="4.342"/><use xlink:href="#24" y="6.513"/><use xlink:href="#33" y="8.684"/><use xlink:href="#34" y="10.855"/></svg><svg x="10360"><use xlink:href="#a"/><use xlink:href="#b" x="28.996" y="10.83"/><use xlink:href="#2"/><use xlink:href="#5" y="2.171"/><use xlink:href="#15" y="4.342"/><use xlink:href="#24" y="6.513"/><use xlink:href="#33" y="8.684"/><use xlink:href="#34" y="10.855"/></svg><svg x="10545"><use xlink:href="#a"/><use xlink:href="#b" x="-.004" y="10.83"/><use xlink:href="#2"/><use xlink:href="#5" y="2.171"/><use xlink:href="#15" y="4.342"/><use xlink:href="#24" y="6.513"/><use xlink:href="#33" y="8.684"/></svg><svg x="10730"><use xlink:href="#a"/><use xlink:href="#b" x="28.996" y="10.83"/><use xlink:href="#2"/><use xlink:href="#5" y="2.171"/><use xlink:href="#15" y="4.342"/><use xlink:href="#24" y="6.513"/><use xlink:href="#33" y="8.684"/><use xlink:href="#34" y="10.855"/></svg><svg x="10915"><use xlink:href="#a"/><use xlink:href="#b" x="-.004" y="10.83"/><use xlink:href="#2"/><use xlink:href="#5" y="2.171"/><use xlink:href="#15" y="4.342"/><use xlink:href="#24" y="6.513"/><use xlink:href="#33" y="8.684"/></svg><svg x="11100"><use xlink:href="#a"/><use xlink:href="#b" x="28.996" y="10.83"/><use xlink:href="#2"/><use xlink:href="#5" y="2.171"/><use xlink:href="#15" y="4.342"/><use xlink:href="#24" y="6.513"/><use xlink:href="#33" y="8.684"/><use xlink:href="#34" y="10.855"/></svg><svg x="11285"><use xlink:href="#a"/><use xlink:href="#b" x="-.004" y="10.83"/><use xlink:href="#2"/><use xlink:href="#5" y="2.171"/><use xlink:href="#15" y="4.342"/><use xlink:href="#24" y="6.513"/><use xlink:href="#33" y="8.684"/></svg><svg x="11470"><use xlink:href="#a"/><use xlink:href="#b" x="28.996" y="10.83"/><use xlink:href="#2"/><use xlink:href="#5" y="2.171"/><use xlink:href="#15" y="4.342"/><use xlink:href="#24" y="6.513"/><use xlink:href="#33" y="8.684"/><use xlink:href="#34" y="10.855"/></svg><svg x="11655"><use xlink:href="#a"/><use xlink:href="#b" x="-.004" y="10.83"/><use xlink:href="#2"/><use xlink:href="#5" y="2.171"/><use xlink:href="#15" y="4.342"/><use xlink:href="#24" y="6.513"/><use xlink:href="#33" y="8.684"/></svg><svg x="11840"><use xlink:href="#a"/><use xlink:href="#b" x="-.004" y="10.83"/><use xlink:href="#2"/><use xlink:href="#5" y="2.171"/><use xlink:href="#15" y="4.342"/><use xlink:href="#24" y="6.513"/><use xlink:href="#33" y="8.684"/><use xlink:href="#34" y="10.855"/></svg><svg x="12025"><use xlink:href="#a"/><use xlink:href="#b" x="28.996" y="10.83"/><use xlink:href="#2"/><use xlink:href="#5" y="2.171"/><use xlink:href="#15" y="4.342"/><use xlink:href="#24" y="6.513"/><use xlink:href="#33" y="8.684"/><use xlink:href="#34" y="10.855"/></svg><svg x="12210"><use xlink:href="#a"/><use xlink:href="#b" x="-.004" y="10.83"/><use xlink:href="#2"/><use xlink:href="#5" y="2.171"/><use xlink:href="#15" y="4.342"/><use xlink:href="#24" y="6.513"/><use xlink:href="#33" y="8.684"/></svg><svg x="12395"><use xlink:href="#a"/><use xlink:href="#b" x="-.004" y="10.83"/><use xlink:href="#2"/><use xlink:href="#5" y="2.171"/><use xlink:href="#15" y="4.342"/><use xlink:href="#24" y="6.513"/><use xlink:href="#33" y="8.684"/><use xlink:href="#34" y="10.855"/></svg><svg x="12580"><use xlink:href="#a"/><use xlink:href="#b" x="28.996" y="10.83"/><use xlink:href="#2"/><use xlink:href="#5" y="2.171"/><use xlink:href="#15" y="4.342"/><use xlink:href="#24" y="6.513"/><use xlink:href="#33" y="8.684"/><use xlink:href="#34" y="10.855"/></svg><svg x="12765"><use xlink:href="#a"/><use xlink:href="#b" x="-.004" y="10.83"/><use xlink:href="#2"/><use xlink:href="#5" y="2.171"/><use xlink:href="#15" y="4.342"/><use xlink:href="#24" y="6.513"/><use xlink:href="#33" y="8.684"/></svg><svg x="12950"><use xlink:href="#a"/><use xlink:href="#b" x="28.996" y="10.83"/><use xlink:href="#2"/><use xlink:href="#5" y="2.171"/><use xlink:href="#15" y="4.342"/><use xlink:href="#24" y="6.513"/><use xlink:href="#33" y="8.684"/><use xlink:href="#34" y="10.855"/></svg><svg x="13135"><use xlink:href="#a"/><use xlink:href="#b" x="-.004" y="10.83"/><use xlink:href="#2"/><use xlink:href="#5" y="2.171"/><use xlink:href="#15" y="4.342"/><use xlink:href="#24" y="6.513"/><use xlink:href="#33" y="8.684"/></svg><svg x="13320"><use xlink:href="#a"/><use xlink:href="#b" x="28.996" y="10.83"/><use xlink:href="#2"/><use xlink:href="#5" y="2.171"/><use xlink:href="#15" y="4.342"/><use xlink:href="#24" y="6.513"/><use xlink:href="#33" y="8.684"/><use xlink:href="#34" y="10.855"/></svg><svg x="13505"><use xlink:href="#a"/><use xlink:href="#b" x="-.004" y="10.83"/><use xlink:href="#2"/><use xlink:href="#5" y="2.171"/><use xlink:href="#15" y="4.342"/><use xlink:href="#24" y="6.513"/><use xlink:href="#33" y="8.684"/></svg><svg x="13690"><use xlink:href="#a"/><use xlink:href="#b" x="-.004" y="10.83"/><use xlink:href="#2"/><use xlink:href="#5" y="2.171"/><use xlink:href="#15" y="4.342"/><use xlink:href="#24" y="6.513"/><use xlink:href="#33" y="8.684"/><use xlink:href="#35" y="10.855"/></svg><svg x="13875"><use xlink:href="#a"/><use xlink:href="#b" x="-.004" y="13.001"/><use xlink:href="#2"/><use xlink:href="#5" y="2.171"/><use xlink:href="#15" y="4.342"/><use xlink:href="#24" y="6.513"/><use xlink:href="#33" y="8.684"/><use xlink:href="#35" y="10.855"/></svg><svg x="14060"><use xlink:href="#a"/><use xlink:href="#b" x="16.996" y="13.001"/><use xlink:href="#2"/><use xlink:href="#5" y="2.171"/><use xlink:href="#15" y="4.342"/><use xlink:href="#24" y="6.513"/><use xlink:href="#33" y="8.684"/><use xlink:href="#35" y="10.855"/><use xlink:href="#36" y="13.026"/></svg><svg x="14245"><use xlink:href="#a"/><use xlink:href="#b" x="16.996" y="13.001"/><use xlink:href="#2"/><use xlink:href="#5" y="2.171"/><use xlink:href="#15" y="4.342"/><use xlink:href="#24" y="6.513"/><use xlink:href="#33" y="8.684"/><use xlink:href="#35" y="10.855"/><use xlink:href="#36" y="13.026"/></svg><svg x="14430"><use xlink:href="#a"/><use xlink:href="#b" x="-.004" y="13.001"/><use xlink:href="#2"/><use xlink:href="#5" y="2.171"/><use xlink:href="#15" y="4.342"/><use xlink:href="#24" y="6.513"/><use xlink:href="#33" y="8.684"/><use xlink:href="#35" y="10.855"/></svg><svg x="14615"><use xlink:href="#a"/><use xlink:href="#b" x="12.996" y="13.001"/><use xlink:href="#2"/><use xlink:href="#5" y="2.171"/><use xlink:href="#15" y="4.342"/><use xlink:href="#24" y="6.513"/><use xlink:href="#33" y="8.684"/><use xlink:href="#35" y="10.855"/><use xlink:href="#37" y="13.026"/></svg><svg x="14800"><use xlink:href="#a"/><use xlink:href="#b" x="-.004" y="15.172"/><use xlink:href="#2"/><use xlink:href="#5" y="2.171"/><use xlink:href="#15" y="4.342"/><use xlink:href="#24" y="6.513"/><use xlink:href="#33" y="8.684"/><use xlink:href="#35" y="10.855"/><use xlink:href="#37" y="13.026"/></svg><svg x="14985"><use xlink:href="#a"/><use xlink:href="#b" x="-.004" y="15.172"/><use xlink:href="#2"/><use xlink:href="#5" y="2.171"/><use xlink:href="#15" y="4.342"/><use xlink:href="#24" y="6.513"/><use xlink:href="#33" y="8.684"/><use xlink:href="#35" y="10.855"/><use xlink:href="#37" y="13.026"/><use xlink:href="#38" y="15.197"/></svg><svg x="15170"><use xlink:href="#a"/><use xlink:href="#b" x="13.996" y="15.172"/><use xlink:href="#2"/><use xlink:href="#5" y="2.171"/><use xlink:href="#15" y="4.342"/><use xlink:href="#24" y="6.513"/><use xlink:href="#33" y="8.684"/><use xlink:href="#35" y="10.855"/><use xlink:href="#37" y="13.026"/><use xlink:href="#38" y="15.197"/></svg><svg x="15355"><use xlink:href="#a"/><use xlink:href="#b" x="-.004" y="15.172"/><use xlink:href="#2"/><use xlink:href="#5" y="2.171"/><use xlink:href="#15" y="4.342"/><use xlink:href="#24" y="6.513"/><use xlink:href="#33" y="8.684"/><use xlink:href="#35" y="10.855"/><use xlink:href="#37" y="13.026"/></svg><svg x="15540"><use xlink:href="#a"/><use xlink:href="#b" x="-.004" y="17.343"/><use xlink:href="#2"/><use xlink:href="#5" y="2.171"/><use xlink:href="#15" y="4.342"/><use xlink:href="#24" y="6.513"/><use xlink:href="#33" y="8.684"/><use xlink:href="#35" y="10.855"/><use xlink:href="#37" y="13.026"/><use xlink:href="#39" y="15.197"/></svg><svg x="15725"><use xlink:href="#a"/><use xlink:href="#b" x="-.004" y="19.514"/><use xlink:href="#2"/><use xlink:href="#5" y="2.171"/><use xlink:href="#15" y="4.342"/><use xlink:href="#24" y="6.513"/><use xlink:href="#33" y="8.684"/><use xlink:href="#35" y="10.855"/><use xlink:href="#37" y="13.026"/><use xlink:href="#39" y="15.197"/><use xlink:href="#40" y="17.368"/></svg><svg x="15910"><use xlink:href="#a"/><use xlink:href="#b" x="-.004" y="19.514"/><use xlink:href="#2"/><use xlink:href="#5" y="2.171"/><use xlink:href="#15" y="4.342"/><use xlink:href="#24" y="6.513"/><use xlink:href="#33" y="8.684"/><use xlink:href="#35" y="10.855"/><use xlink:href="#37" y="13.026"/><use xlink:href="#39" y="15.197"/><use xlink:href="#40" y="17.368"/></svg></svg></g></g></svg></svg>