<svg xmlns="http://www.w3.org/2000/svg" xmlns:xlink="http://www.w3.org/1999/xlink" width="1310" height="601.04"><rect width="1310" height="601.04" rx="5" ry="5" class="a"/><svg y="0%" x="0%"><circle cx="20" cy="20" r="6" fill="#ff5f58"/><circle cx="40" cy="20" r="6" fill="#ffbd2e"/><circle cx="60" cy="20" r="6" fill="#18c132"/></svg><svg height="521.04" viewBox="0 0 125 52.104" width="1250" x="25" xmlns="http://www.w3.org/2000/svg" xmlns:xlink="http://www.w3.org/1999/xlink" y="60"><style>@keyframes k{0%{transform:translateX(0)}4.11%{transform:translateX(-125px)}7.67%{transform:translateX(-250px)}8.6%{transform:translateX(-375px)}9.65%{transform:translateX(-500px)}11.04%{transform:translateX(-625px)}11.39%{transform:translateX(-750px)}12.23%{transform:translateX(-875px)}12.73%{transform:translateX(-1000px)}13.51%{transform:translateX(-1125px)}14.58%{transform:translateX(-1250px)}14.97%{transform:translateX(-1375px)}15.3%{transform:translateX(-1500px)}15.97%{transform:translateX(-1625px)}16.28%{transform:translateX(-1750px)}18.67%{transform:translateX(-1875px)}24.5%{transform:translateX(-2000px)}24.51%{transform:translateX(-2125px)}29.58%{transform:translateX(-2500px)}29.59%{transform:translateX(-2625px)}35.09%{transform:translateX(-2875px)}39.91%{transform:translateX(-3125px)}39.92%{transform:translateX(-3250px)}44.53%{transform:translateX(-3500px)}50.96%{transform:translateX(-3750px)}52.9%{transform:translateX(-4000px)}53.82%{transform:translateX(-4125px)}53.83%{transform:translateX(-4250px)}54.89%{transform:translateX(-4500px)}55.4%{transform:translateX(-4625px)}55.73%{transform:translateX(-4875px)}56.41%{transform:translateX(-5000px)}57.3%{transform:translateX(-5125px)}57.31%{transform:translateX(-5250px)}57.85%{transform:translateX(-5375px)}57.86%{transform:translateX(-5500px)}58.86%{transform:translateX(-5750px)}59.76%{transform:translateX(-5875px)}59.77%{transform:translateX(-6000px)}61.18%{transform:translateX(-6625px)}65.93%{transform:translateX(-6875px)}71.14%{transform:translateX(-7000px)}76.34%{transform:translateX(-7125px)}76.35%{transform:translateX(-7250px)}to{transform:translateX(-7375px)}}.a{fill:#282d35}.f{fill:#b9c0cb}.g{fill:#a8cc8c}.h{fill:#b9c0cb;font-weight:700}.i{fill:#66c2cd}</style><g font-size="1.67" font-family="Monaco,Consolas,Menlo,'Bitstream Vera Sans Mono','Powerline Symbols',monospace"><defs><symbol id="1"><text y="1.67" class="f">bash-3.2$</text><text x="10.02" y="1.67" class="f">liquid</text></symbol><symbol id="2"><text y="1.67" class="f">bash-3.2$</text><text x="10.02" y="1.67" class="f">liquid</text><text x="17.034" y="1.67" class="f">create</text></symbol><symbol id="3"><text y="1.67" class="g">?</text><text x="2.004" y="1.67" class="h">Name:</text><text x="8.016" y="1.67" class="f">(LINODE)</text></symbol><symbol id="4"><text y="1.67" class="g">?</text><text x="2.004" y="1.67" class="h">Name:</text><text x="8.016" y="1.67" class="i">LINODE</text></symbol><symbol id="5"><text y="1.67" class="f">(Move</text><text x="6.012" y="1.67" class="f">up</text><text x="9.018" y="1.67" class="f">and</text><text x="13.026" y="1.67" class="f">down</text><text x="18.036" y="1.67" class="f">to</text><text x="21.042" y="1.67" class="f">reveal</text><text x="28.056" y="1.67" class="f">more</text><text x="33.066" y="1.67" class="f">choices)</text></symbol><symbol id="6"><text y="1.67" class="g">?</text><text x="2.004" y="1.67" class="h">Type:</text><text x="8.016" y="1.67" class="i">Nanode</text><text x="15.03" y="1.67" class="i">1GB</text><text x="19.038" y="1.67" class="i">(g6-nanode-1)</text></symbol><symbol id="7"><text y="1.67" class="g">?</text><text x="2.004" y="1.67" class="h">Region:</text><text x="10.02" y="1.67" class="i">UK</text><text x="13.026" y="1.67" class="i">(eu-west)</text></symbol><symbol id="8"><text y="1.67" class="g">?</text><text x="2.004" y="1.67" class="h">Image:</text><text x="9.018" y="1.67" class="i">Debian</text><text x="16.032" y="1.67" class="i">9</text><text x="18.036" y="1.67" class="i">(linode/debian9)</text></symbol><symbol id="9"><text y="1.67" class="g">?</text><text x="2.004" y="1.67" class="h">Password</text><text x="11.022" y="1.67" class="f">[input</text><text x="18.036" y="1.67" class="f">is</text><text x="21.042" y="1.67" class="f">hidden]</text></symbol><symbol id="10"><text y="1.67" class="g">?</text><text x="2.004" y="1.67" class="h">Password</text><text x="11.022" y="1.67" class="f">[hidden]</text></symbol><symbol id="11"><text y="1.67" class="g">?</text><text x="2.004" y="1.67" class="h">Backups?</text><text x="11.022" y="1.67" class="f">(y/N)</text></symbol><symbol id="12"><text y="1.67" class="g">?</text><text x="2.004" y="1.67" class="h">Backups?</text><text x="11.022" y="1.67" class="i">No</text></symbol><symbol id="13"><text y="1.67" class="g">?</text><text x="2.004" y="1.67" class="h">Boot?</text><text x="8.016" y="1.67" class="i">No</text></symbol><symbol id="14"><text y="1.67" class="g">✔</text><text x="2.004" y="1.67" class="f">Linode:</text><text x="10.02" y="1.67" class="f">LINODE</text><text x="17.034" y="1.67" class="f">(id:</text><text x="22.044" y="1.67" class="f">12348753)</text><text x="32.064" y="1.67" class="f">has</text><text x="36.072" y="1.67" class="f">been</text><text x="41.082" y="1.67" class="f">assigned</text><text x="50.1" y="1.67" class="f">the</text><text x="54.108" y="1.67" class="f">IP:</text><text x="58.116" y="1.67" class="f">178.79.173.36,</text><text x="73.146" y="1.67" class="f">is</text><text x="76.152" y="1.67" class="f">currently</text><text x="86.172" y="1.67" class="f">provisioning</text><text x="99.198" y="1.67" class="f">but</text><text x="103.206" y="1.67" class="f">will</text><text x="108.216" y="1.67" class="f">not</text><text x="112.224" y="1.67" class="f">boot.</text></symbol><symbol id="a"><path fill="transparent" d="M0 0h125v24H0z"/></symbol></defs><path class="a" d="M0 0h125v52.104H0z"/><g style="animation-duration:21.309536s;animation-iteration-count:infinite;animation-name:k;animation-timing-function:steps(1,end)"><svg width="7500"><svg><use xlink:href="#a"/></svg><svg x="125"><use xlink:href="#a"/><text y="1.67" class="f">bash-3.2$</text></svg><svg x="250"><use xlink:href="#a"/><text y="1.67" class="f">bash-3.2$</text><text x="10.02" y="1.67" class="f">l</text></svg><svg x="375"><use xlink:href="#a"/><text y="1.67" class="f">bash-3.2$</text><text x="10.02" y="1.67" class="f">li</text></svg><svg x="500"><use xlink:href="#a"/><text y="1.67" class="f">bash-3.2$</text><text x="10.02" y="1.67" class="f">liq</text></svg><svg x="625"><use xlink:href="#a"/><text y="1.67" class="f">bash-3.2$</text><text x="10.02" y="1.67" class="f">liqu</text></svg><svg x="750"><use xlink:href="#a"/><text y="1.67" class="f">bash-3.2$</text><text x="10.02" y="1.67" class="f">liqui</text></svg><svg x="875"><use xlink:href="#a"/><use xlink:href="#1"/></svg><svg x="1000"><use xlink:href="#a"/><use xlink:href="#1"/></svg><svg x="1125"><use xlink:href="#a"/><text y="1.67" class="f">bash-3.2$</text><text x="10.02" y="1.67" class="f">liquid</text><text x="17.034" y="1.67" class="f">c</text></svg><svg x="1250"><use xlink:href="#a"/><text y="1.67" class="f">bash-3.2$</text><text x="10.02" y="1.67" class="f">liquid</text><text x="17.034" y="1.67" class="f">cr</text></svg><svg x="1375"><use xlink:href="#a"/><text y="1.67" class="f">bash-3.2$</text><text x="10.02" y="1.67" class="f">liquid</text><text x="17.034" y="1.67" class="f">cre</text></svg><svg x="1500"><use xlink:href="#a"/><text y="1.67" class="f">bash-3.2$</text><text x="10.02" y="1.67" class="f">liquid</text><text x="17.034" y="1.67" class="f">crea</text></svg><svg x="1625"><use xlink:href="#a"/><text y="1.67" class="f">bash-3.2$</text><text x="10.02" y="1.67" class="f">liquid</text><text x="17.034" y="1.67" class="f">creat</text></svg><svg x="1750"><use xlink:href="#a"/><use xlink:href="#2"/></svg><svg x="1875"><use xlink:href="#a"/><use xlink:href="#2"/></svg><svg x="2000"><use xlink:href="#a"/><use xlink:href="#2"/><use xlink:href="#3" y="2.171"/></svg><svg x="2125"><use xlink:href="#a"/><use xlink:href="#2"/><use xlink:href="#3" y="2.171"/></svg><svg x="2250"><use xlink:href="#a"/><use xlink:href="#2"/></svg><svg x="2375"><use xlink:href="#a"/><use xlink:href="#2"/><use xlink:href="#4" y="2.171"/></svg><svg x="2500"><use xlink:href="#a"/><use xlink:href="#2"/><use xlink:href="#4" y="2.171"/></svg><svg x="2625"><use xlink:href="#a"/><use xlink:href="#2"/><use xlink:href="#4" y="2.171"/><text y="6.012" class="g">?</text><text x="2.004" y="6.012" class="h">Type:</text><text x="8.016" y="6.012" class="f">(Use</text><text x="13.026" y="6.012" class="f">arrow</text><text x="19.038" y="6.012" class="f">keys)</text><text y="8.183" class="i">❯</text><text x="2.004" y="8.183" class="i">Nanode</text><text x="9.018" y="8.183" class="i">1GB</text><text x="13.026" y="8.183" class="i">(g6-nanode-1)</text><text x="2.004" y="10.354" class="f">Linode</text><text x="9.018" y="10.354" class="f">2GB</text><text x="13.026" y="10.354" class="f">(g6-standard-1)</text><text x="2.004" y="12.525" class="f">Linode</text><text x="9.018" y="12.525" class="f">4GB</text><text x="13.026" y="12.525" class="f">(g6-standard-2)</text><text x="2.004" y="14.696" class="f">Linode</text><text x="9.018" y="14.696" class="f">8GB</text><text x="13.026" y="14.696" class="f">(g6-standard-4)</text><text x="2.004" y="16.867" class="f">Linode</text><text x="9.018" y="16.867" class="f">16GB</text><text x="14.028" y="16.867" class="f">(g6-standard-6)</text><text x="2.004" y="19.038" class="f">Linode</text><text x="9.018" y="19.038" class="f">32GB</text><text x="14.028" y="19.038" class="f">(g6-standard-8)</text><text x="2.004" y="21.209" class="f">Linode</text><text x="9.018" y="21.209" class="f">64GB</text><text x="14.028" y="21.209" class="f">(g6-standard-16)</text><use xlink:href="#5" y="21.71"/></svg><svg x="2750"><use xlink:href="#a"/><use xlink:href="#2"/><use xlink:href="#4" y="2.171"/></svg><svg x="2875"><use xlink:href="#a"/><use xlink:href="#2"/><use xlink:href="#4" y="2.171"/><use xlink:href="#6" y="4.342"/><text y="8.183" class="g">?</text><text x="2.004" y="8.183" class="h">Region:</text><text x="10.02" y="8.183" class="f">(Use</text><text x="15.03" y="8.183" class="f">arrow</text><text x="21.042" y="8.183" class="f">keys)</text><text x="2.004" y="10.354" class="f">US</text><text x="5.01" y="10.354" class="f">(us-west)</text><text x="2.004" y="12.525" class="f">US</text><text x="5.01" y="12.525" class="f">(us-southeast)</text><text x="2.004" y="14.696" class="f">US</text><text x="5.01" y="14.696" class="f">(us-east)</text><text y="16.867" class="i">❯</text><text x="2.004" y="16.867" class="i">UK</text><text x="5.01" y="16.867" class="i">(eu-west)</text><text x="2.004" y="19.038" class="f">SG</text><text x="5.01" y="19.038" class="f">(ap-south)</text><text x="2.004" y="21.209" class="f">DE</text><text x="5.01" y="21.209" class="f">(eu-central)</text><text x="2.004" y="23.38" class="f">JP</text><text x="5.01" y="23.38" class="f">(ap-northeast)</text><use xlink:href="#5" y="23.881"/></svg><svg x="3000"><use xlink:href="#a"/><use xlink:href="#2"/><use xlink:href="#4" y="2.171"/><use xlink:href="#6" y="4.342"/></svg><svg x="3125"><use xlink:href="#a"/><use xlink:href="#2"/><use xlink:href="#4" y="2.171"/><use xlink:href="#6" y="4.342"/><use xlink:href="#7" y="6.513"/></svg><svg x="3250"><use xlink:href="#a"/><use xlink:href="#2"/><use xlink:href="#4" y="2.171"/><use xlink:href="#6" y="4.342"/><use xlink:href="#7" y="6.513"/><text y="10.354" class="g">?</text><text x="2.004" y="10.354" class="h">Image:</text><text x="9.018" y="10.354" class="f">(Use</text><text x="14.028" y="10.354" class="f">arrow</text><text x="20.04" y="10.354" class="f">keys)</text><text x="2.004" y="12.525" class="f">CentOS</text><text x="9.018" y="12.525" class="f">7</text><text x="11.022" y="12.525" class="f">(linode/centos7)</text><text x="2.004" y="14.696" class="f">CoreOS</text><text x="9.018" y="14.696" class="f">Container</text><text x="19.038" y="14.696" class="f">Linux</text><text x="25.05" y="14.696" class="f">(linode/containerlinux)</text><text x="2.004" y="16.867" class="f">Debian</text><text x="9.018" y="16.867" class="f">8</text><text x="11.022" y="16.867" class="f">(linode/debian8)</text><text y="19.038" class="i">❯</text><text x="2.004" y="19.038" class="i">Debian</text><text x="9.018" y="19.038" class="i">9</text><text x="11.022" y="19.038" class="i">(linode/debian9)</text><text x="2.004" y="21.209" class="f">Fedora</text><text x="9.018" y="21.209" class="f">27</text><text x="12.024" y="21.209" class="f">(linode/fedora27)</text><text x="2.004" y="23.38" class="f">Fedora</text><text x="9.018" y="23.38" class="f">28</text><text x="12.024" y="23.38" class="f">(linode/fedora28)</text><text x="2.004" y="25.551" class="f">Fedora</text><text x="9.018" y="25.551" class="f">29</text><text x="12.024" y="25.551" class="f">(linode/fedora29)</text><use xlink:href="#5" y="26.052"/></svg><svg x="3375"><use xlink:href="#a"/><use xlink:href="#2"/><use xlink:href="#4" y="2.171"/><use xlink:href="#6" y="4.342"/><use xlink:href="#7" y="6.513"/></svg><svg x="3500"><use xlink:href="#a"/><use xlink:href="#2"/><use xlink:href="#4" y="2.171"/><use xlink:href="#6" y="4.342"/><use xlink:href="#7" y="6.513"/><use xlink:href="#8" y="8.684"/><use xlink:href="#9" y="10.855"/></svg><svg x="3625"><use xlink:href="#a"/><use xlink:href="#2"/><use xlink:href="#4" y="2.171"/><use xlink:href="#6" y="4.342"/><use xlink:href="#7" y="6.513"/><use xlink:href="#8" y="8.684"/></svg><svg x="3750"><use xlink:href="#a"/><use xlink:href="#2"/><use xlink:href="#4" y="2.171"/><use xlink:href="#6" y="4.342"/><use xlink:href="#7" y="6.513"/><use xlink:href="#8" y="8.684"/><use xlink:href="#9" y="10.855"/></svg><svg x="3875"><use xlink:href="#a"/><use xlink:href="#2"/><use xlink:href="#4" y="2.171"/><use xlink:href="#6" y="4.342"/><use xlink:href="#7" y="6.513"/><use xlink:href="#8" y="8.684"/></svg><svg x="4000"><use xlink:href="#a"/><use xlink:href="#2"/><use xlink:href="#4" y="2.171"/><use xlink:href="#6" y="4.342"/><use xlink:href="#7" y="6.513"/><use xlink:href="#8" y="8.684"/><use xlink:href="#9" y="10.855"/></svg><svg x="4125"><use xlink:href="#a"/><use xlink:href="#2"/><use xlink:href="#4" y="2.171"/><use xlink:href="#6" y="4.342"/><use xlink:href="#7" y="6.513"/><use xlink:href="#8" y="8.684"/></svg><svg x="4250"><use xlink:href="#a"/><use xlink:href="#2"/><use xlink:href="#4" y="2.171"/><use xlink:href="#6" y="4.342"/><use xlink:href="#7" y="6.513"/><use xlink:href="#8" y="8.684"/><use xlink:href="#9" y="10.855"/></svg><svg x="4375"><use xlink:href="#a"/><use xlink:href="#2"/><use xlink:href="#4" y="2.171"/><use xlink:href="#6" y="4.342"/><use xlink:href="#7" y="6.513"/><use xlink:href="#8" y="8.684"/></svg><svg x="4500"><use xlink:href="#a"/><use xlink:href="#2"/><use xlink:href="#4" y="2.171"/><use xlink:href="#6" y="4.342"/><use xlink:href="#7" y="6.513"/><use xlink:href="#8" y="8.684"/><use xlink:href="#9" y="10.855"/></svg><svg x="4625"><use xlink:href="#a"/><use xlink:href="#2"/><use xlink:href="#4" y="2.171"/><use xlink:href="#6" y="4.342"/><use xlink:href="#7" y="6.513"/><use xlink:href="#8" y="8.684"/><use xlink:href="#9" y="10.855"/></svg><svg x="4750"><use xlink:href="#a"/><use xlink:href="#2"/><use xlink:href="#4" y="2.171"/><use xlink:href="#6" y="4.342"/><use xlink:href="#7" y="6.513"/><use xlink:href="#8" y="8.684"/></svg><svg x="4875"><use xlink:href="#a"/><use xlink:href="#2"/><use xlink:href="#4" y="2.171"/><use xlink:href="#6" y="4.342"/><use xlink:href="#7" y="6.513"/><use xlink:href="#8" y="8.684"/><use xlink:href="#9" y="10.855"/></svg><svg x="5000"><use xlink:href="#a"/><use xlink:href="#2"/><use xlink:href="#4" y="2.171"/><use xlink:href="#6" y="4.342"/><use xlink:href="#7" y="6.513"/><use xlink:href="#8" y="8.684"/><use xlink:href="#9" y="10.855"/></svg><svg x="5125"><use xlink:href="#a"/><use xlink:href="#2"/><use xlink:href="#4" y="2.171"/><use xlink:href="#6" y="4.342"/><use xlink:href="#7" y="6.513"/><use xlink:href="#8" y="8.684"/></svg><svg x="5250"><use xlink:href="#a"/><use xlink:href="#2"/><use xlink:href="#4" y="2.171"/><use xlink:href="#6" y="4.342"/><use xlink:href="#7" y="6.513"/><use xlink:href="#8" y="8.684"/><use xlink:href="#9" y="10.855"/></svg><svg x="5375"><use xlink:href="#a"/><use xlink:href="#2"/><use xlink:href="#4" y="2.171"/><use xlink:href="#6" y="4.342"/><use xlink:href="#7" y="6.513"/><use xlink:href="#8" y="8.684"/></svg><svg x="5500"><use xlink:href="#a"/><use xlink:href="#2"/><use xlink:href="#4" y="2.171"/><use xlink:href="#6" y="4.342"/><use xlink:href="#7" y="6.513"/><use xlink:href="#8" y="8.684"/><use xlink:href="#9" y="10.855"/></svg><svg x="5625"><use xlink:href="#a"/><use xlink:href="#2"/><use xlink:href="#4" y="2.171"/><use xlink:href="#6" y="4.342"/><use xlink:href="#7" y="6.513"/><use xlink:href="#8" y="8.684"/></svg><svg x="5750"><use xlink:href="#a"/><use xlink:href="#2"/><use xlink:href="#4" y="2.171"/><use xlink:href="#6" y="4.342"/><use xlink:href="#7" y="6.513"/><use xlink:href="#8" y="8.684"/><use xlink:href="#9" y="10.855"/></svg><svg x="5875"><use xlink:href="#a"/><use xlink:href="#2"/><use xlink:href="#4" y="2.171"/><use xlink:href="#6" y="4.342"/><use xlink:href="#7" y="6.513"/><use xlink:href="#8" y="8.684"/></svg><svg x="6000"><use xlink:href="#a"/><use xlink:href="#2"/><use xlink:href="#4" y="2.171"/><use xlink:href="#6" y="4.342"/><use xlink:href="#7" y="6.513"/><use xlink:href="#8" y="8.684"/><use xlink:href="#9" y="10.855"/></svg><svg x="6125"><use xlink:href="#a"/><use xlink:href="#2"/><use xlink:href="#4" y="2.171"/><use xlink:href="#6" y="4.342"/><use xlink:href="#7" y="6.513"/><use xlink:href="#8" y="8.684"/></svg><svg x="6250"><use xlink:href="#a"/><use xlink:href="#2"/><use xlink:href="#4" y="2.171"/><use xlink:href="#6" y="4.342"/><use xlink:href="#7" y="6.513"/><use xlink:href="#8" y="8.684"/><use xlink:href="#10" y="10.855"/></svg><svg x="6375"><use xlink:href="#a"/><use xlink:href="#2"/><use xlink:href="#4" y="2.171"/><use xlink:href="#6" y="4.342"/><use xlink:href="#7" y="6.513"/><use xlink:href="#8" y="8.684"/><use xlink:href="#10" y="10.855"/></svg><svg x="6500"><use xlink:href="#a"/><use xlink:href="#2"/><use xlink:href="#4" y="2.171"/><use xlink:href="#6" y="4.342"/><use xlink:href="#7" y="6.513"/><use xlink:href="#8" y="8.684"/><use xlink:href="#10" y="10.855"/><use xlink:href="#11" y="13.026"/></svg><svg x="6625"><use xlink:href="#a"/><use xlink:href="#2"/><use xlink:href="#4" y="2.171"/><use xlink:href="#6" y="4.342"/><use xlink:href="#7" y="6.513"/><use xlink:href="#8" y="8.684"/><use xlink:href="#10" y="10.855"/><use xlink:href="#11" y="13.026"/></svg><svg x="6750"><use xlink:href="#a"/><use xlink:href="#2"/><use xlink:href="#4" y="2.171"/><use xlink:href="#6" y="4.342"/><use xlink:href="#7" y="6.513"/><use xlink:href="#8" y="8.684"/><use xlink:href="#10" y="10.855"/></svg><svg x="6875"><use xlink:href="#a"/><use xlink:href="#2"/><use xlink:href="#4" y="2.171"/><use xlink:href="#6" y="4.342"/><use xlink:href="#7" y="6.513"/><use xlink:href="#8" y="8.684"/><use xlink:href="#10" y="10.855"/><use xlink:href="#12" y="13.026"/><text y="16.867" class="g">?</text><text x="2.004" y="16.867" class="h">Boot?</text><text x="8.016" y="16.867" class="f">(y/N)</text></svg><svg x="7000"><use xlink:href="#a"/><use xlink:href="#2"/><use xlink:href="#4" y="2.171"/><use xlink:href="#6" y="4.342"/><use xlink:href="#7" y="6.513"/><use xlink:href="#8" y="8.684"/><use xlink:href="#10" y="10.855"/><use xlink:href="#12" y="13.026"/><use xlink:href="#13" y="15.197"/></svg><svg x="7125"><use xlink:href="#a"/><use xlink:href="#2"/><use xlink:href="#4" y="2.171"/><use xlink:href="#6" y="4.342"/><use xlink:href="#7" y="6.513"/><use xlink:href="#8" y="8.684"/><use xlink:href="#10" y="10.855"/><use xlink:href="#12" y="13.026"/><use xlink:href="#13" y="15.197"/><use xlink:href="#14" y="17.368"/></svg><svg x="7250"><use xlink:href="#a"/><use xlink:href="#2"/><use xlink:href="#4" y="2.171"/><use xlink:href="#6" y="4.342"/><use xlink:href="#7" y="6.513"/><use xlink:href="#8" y="8.684"/><use xlink:href="#10" y="10.855"/><use xlink:href="#12" y="13.026"/><use xlink:href="#13" y="15.197"/><use xlink:href="#14" y="17.368"/></svg><svg x="7375"><use xlink:href="#a"/><use xlink:href="#2"/><use xlink:href="#4" y="2.171"/><use xlink:href="#6" y="4.342"/><use xlink:href="#7" y="6.513"/><use xlink:href="#8" y="8.684"/><use xlink:href="#10" y="10.855"/><use xlink:href="#12" y="13.026"/><use xlink:href="#13" y="15.197"/><use xlink:href="#14" y="17.368"/></svg></svg></g></g></svg></svg>