<svg xmlns="http://www.w3.org/2000/svg" xmlns:xlink="http://www.w3.org/1999/xlink" width="1260" height="731.3"><rect width="1260" height="731.3" rx="5" ry="5" class="a"/><svg y="0%" x="0%"><circle cx="20" cy="20" r="6" fill="#ff5f58"/><circle cx="40" cy="20" r="6" fill="#ffbd2e"/><circle cx="60" cy="20" r="6" fill="#18c132"/></svg><svg height="651.3" viewBox="0 0 120 65.13" width="1200" x="25" xmlns="http://www.w3.org/2000/svg" xmlns:xlink="http://www.w3.org/1999/xlink" y="60"><style>@keyframes k{0%{transform:translateX(0)}.1%{transform:translateX(-120px)}4.4%{transform:translateX(-240px)}4.8%{transform:translateX(-360px)}5.6%{transform:translateX(-480px)}6.2%{transform:translateX(-600px)}6.6%{transform:translateX(-720px)}7.4%{transform:translateX(-840px)}8%{transform:translateX(-960px)}8.8%{transform:translateX(-1080px)}10%{transform:translateX(-1200px)}10.4%{transform:translateX(-1320px)}10.7%{transform:translateX(-1440px)}11.5%{transform:translateX(-1560px)}11.8%{transform:translateX(-1680px)}15.2%{transform:translateX(-1800px)}21.8%{transform:translateX(-2160px)}28.5%{transform:translateX(-2640px)}29%{transform:translateX(-2880px)}29.6%{transform:translateX(-3120px)}30.4%{transform:translateX(-3360px)}32%{transform:translateX(-3600px)}32.2%{transform:translateX(-3840px)}42.3%{transform:translateX(-4080px)}47.3%{transform:translateX(-4440px)}47.4%{transform:translateX(-4680px)}52.9%{transform:translateX(-5520px)}61.4%{transform:translateX(-6120px)}65.3%{transform:translateX(-6360px)}65.4%{transform:translateX(-6720px)}73.6%{transform:translateX(-6960px)}74.8%{transform:translateX(-7200px)}75.3%{transform:translateX(-7440px)}76.3%{transform:translateX(-7800px)}77%{transform:translateX(-8160px)}77.5%{transform:translateX(-8400px)}80.3%{transform:translateX(-8640px)}81%{transform:translateX(-9240px)}86.5%{transform:translateX(-9840px)}90%{transform:translateX(-10080px)}to{transform:translateX(-10320px)}}.a{fill:#282d35}.f{fill:#b9c0cb}.g{fill:#a8cc8c}.h{fill:#b9c0cb;font-weight:700}.i{fill:#66c2cd}</style><g font-size="1.67" font-family="Monaco,Consolas,Menlo,'Bitstream Vera Sans Mono','Powerline Symbols',monospace"><defs><symbol id="1"><text y="1.67" class="f">bash-3.2$</text><text x="10.02" y="1.67" class="f">liquid</text></symbol><symbol id="2"><text y="1.67" class="f">bash-3.2$</text><text x="10.02" y="1.67" class="f">liquid</text><text x="17.034" y="1.67" class="f">create</text></symbol><symbol id="3"><text y="1.67" class="g">?</text><text x="2.004" y="1.67" class="h">Name:</text><text x="8.016" y="1.67" class="f">(LINODE)</text></symbol><symbol id="4"><text y="1.67" class="g">?</text><text x="2.004" y="1.67" class="h">Name:</text><text x="8.016" y="1.67" class="f">L</text></symbol><symbol id="5"><text y="1.67" class="g">?</text><text x="2.004" y="1.67" class="h">Name:</text><text x="8.016" y="1.67" class="f">LINODE</text></symbol><symbol id="6"><text y="1.67" class="g">?</text><text x="2.004" y="1.67" class="h">Type:</text><text x="8.016" y="1.67" class="f">(Use</text><text x="13.026" y="1.67" class="f">arrow</text><text x="19.038" y="1.67" class="f">keys)</text></symbol><symbol id="7"><text y="1.67" class="i">❯</text><text x="2.004" y="1.67" class="i">Nanode</text><text x="9.018" y="1.67" class="i">1GB</text><text x="13.026" y="1.67" class="i">(g6-nanode-1)</text></symbol><symbol id="8"><text x="2.004" y="1.67" class="f">Linode</text><text x="9.018" y="1.67" class="f">2GB</text><text x="13.026" y="1.67" class="f">(g6-standard-1)</text></symbol><symbol id="9"><text x="2.004" y="1.67" class="f">Linode</text><text x="9.018" y="1.67" class="f">4GB</text><text x="13.026" y="1.67" class="f">(g6-standard-2)</text></symbol><symbol id="10"><text x="2.004" y="1.67" class="f">Linode</text><text x="9.018" y="1.67" class="f">8GB</text><text x="13.026" y="1.67" class="f">(g6-standard-4)</text></symbol><symbol id="11"><text x="2.004" y="1.67" class="f">Linode</text><text x="9.018" y="1.67" class="f">16GB</text><text x="14.028" y="1.67" class="f">(g6-standard-6)</text></symbol><symbol id="12"><text x="2.004" y="1.67" class="f">Linode</text><text x="9.018" y="1.67" class="f">32GB</text><text x="14.028" y="1.67" class="f">(g6-standard-8)</text></symbol><symbol id="13"><text x="2.004" y="1.67" class="f">Linode</text><text x="9.018" y="1.67" class="f">64GB</text><text x="14.028" y="1.67" class="f">(g6-standard-16)</text></symbol><symbol id="14"><text y="1.67" class="f">(Move</text><text x="6.012" y="1.67" class="f">up</text><text x="9.018" y="1.67" class="f">and</text><text x="13.026" y="1.67" class="f">down</text><text x="18.036" y="1.67" class="f">to</text><text x="21.042" y="1.67" class="f">reveal</text><text x="28.056" y="1.67" class="f">more</text><text x="33.066" y="1.67" class="f">choices)</text></symbol><symbol id="15"><text y="1.67" class="g">?</text><text x="2.004" y="1.67" class="h">Type:</text><text x="8.016" y="1.67" class="i">Nanode</text><text x="15.03" y="1.67" class="i">1GB</text><text x="19.038" y="1.67" class="i">(g6-nanode-1)</text></symbol><symbol id="16"><text y="1.67" class="g">?</text><text x="2.004" y="1.67" class="h">Region:</text><text x="10.02" y="1.67" class="f">(Use</text><text x="15.03" y="1.67" class="f">arrow</text><text x="21.042" y="1.67" class="f">keys)</text></symbol><symbol id="17"><text x="2.004" y="1.67" class="f">US</text><text x="5.01" y="1.67" class="f">(us-west)</text></symbol><symbol id="18"><text x="2.004" y="1.67" class="f">US</text><text x="5.01" y="1.67" class="f">(us-southeast)</text></symbol><symbol id="19"><text x="2.004" y="1.67" class="f">US</text><text x="5.01" y="1.67" class="f">(us-east)</text></symbol><symbol id="20"><text y="1.67" class="i">❯</text><text x="2.004" y="1.67" class="i">UK</text><text x="5.01" y="1.67" class="i">(eu-west)</text></symbol><symbol id="21"><text x="2.004" y="1.67" class="f">SG</text><text x="5.01" y="1.67" class="f">(ap-south)</text></symbol><symbol id="22"><text x="2.004" y="1.67" class="f">DE</text><text x="5.01" y="1.67" class="f">(eu-central)</text></symbol><symbol id="23"><text x="2.004" y="1.67" class="f">JP</text><text x="5.01" y="1.67" class="f">(ap-northeast)</text></symbol><symbol id="24"><text y="1.67" class="g">?</text><text x="2.004" y="1.67" class="h">Region:</text><text x="10.02" y="1.67" class="i">UK</text><text x="13.026" y="1.67" class="i">(eu-west)</text></symbol><symbol id="25"><text y="1.67" class="g">?</text><text x="2.004" y="1.67" class="h">Image:</text><text x="9.018" y="1.67" class="f">(Use</text><text x="14.028" y="1.67" class="f">arrow</text><text x="20.04" y="1.67" class="f">keys)</text></symbol><symbol id="26"><text x="2.004" y="1.67" class="f">CentOS</text><text x="9.018" y="1.67" class="f">7</text><text x="11.022" y="1.67" class="f">(linode/centos7)</text></symbol><symbol id="27"><text x="2.004" y="1.67" class="f">CoreOS</text><text x="9.018" y="1.67" class="f">Container</text><text x="19.038" y="1.67" class="f">Linux</text><text x="25.05" y="1.67" class="f">(linode/containerlinux)</text></symbol><symbol id="28"><text x="2.004" y="1.67" class="f">Debian</text><text x="9.018" y="1.67" class="f">8</text><text x="11.022" y="1.67" class="f">(linode/debian8)</text></symbol><symbol id="29"><text y="1.67" class="i">❯</text><text x="2.004" y="1.67" class="i">Debian</text><text x="9.018" y="1.67" class="i">9</text><text x="11.022" y="1.67" class="i">(linode/debian9)</text></symbol><symbol id="30"><text x="2.004" y="1.67" class="f">Fedora</text><text x="9.018" y="1.67" class="f">27</text><text x="12.024" y="1.67" class="f">(linode/fedora27)</text></symbol><symbol id="31"><text x="2.004" y="1.67" class="f">Fedora</text><text x="9.018" y="1.67" class="f">28</text><text x="12.024" y="1.67" class="f">(linode/fedora28)</text></symbol><symbol id="32"><text x="2.004" y="1.67" class="f">Fedora</text><text x="9.018" y="1.67" class="f">29</text><text x="12.024" y="1.67" class="f">(linode/fedora29)</text></symbol><symbol id="33"><text y="1.67" class="g">?</text><text x="2.004" y="1.67" class="h">Image:</text><text x="9.018" y="1.67" class="i">Debian</text><text x="16.032" y="1.67" class="i">9</text><text x="18.036" y="1.67" class="i">(linode/debian9)</text></symbol><symbol id="34"><text y="1.67" class="g">?</text><text x="2.004" y="1.67" class="h">Password</text><text x="11.022" y="1.67" class="f">[input</text><text x="18.036" y="1.67" class="f">is</text><text x="21.042" y="1.67" class="f">hidden]</text></symbol><symbol id="35"><text y="1.67" class="g">?</text><text x="2.004" y="1.67" class="h">Password</text><text x="11.022" y="1.67" class="f">[hidden]</text></symbol><symbol id="36"><text y="1.67" class="g">?</text><text x="2.004" y="1.67" class="h">Backups?</text><text x="11.022" y="1.67" class="f">(y/N)</text></symbol><symbol id="37"><text y="1.67" class="g">?</text><text x="2.004" y="1.67" class="h">Backups?</text><text x="11.022" y="1.67" class="i">No</text></symbol><symbol id="38"><text y="1.67" class="g">?</text><text x="2.004" y="1.67" class="h">Boot?</text><text x="8.016" y="1.67" class="f">(y/N)</text></symbol><symbol id="39"><text y="1.67" class="g">?</text><text x="2.004" y="1.67" class="h">Boot?</text><text x="8.016" y="1.67" class="i">No</text></symbol><symbol id="40"><text y="1.67" class="g">✔</text><text x="2.004" y="1.67" class="f">Linode:</text><text x="10.02" y="1.67" class="f">LINODE</text><text x="17.034" y="1.67" class="f">(id:</text><text x="22.044" y="1.67" class="f">12348375)</text><text x="32.064" y="1.67" class="f">has</text><text x="36.072" y="1.67" class="f">been</text><text x="41.082" y="1.67" class="f">assigned</text><text x="50.1" y="1.67" class="f">the</text><text x="54.108" y="1.67" class="f">IP:</text><text x="58.116" y="1.67" class="f">178.79.147.231,</text><text x="74.148" y="1.67" class="f">is</text><text x="77.154" y="1.67" class="f">currently</text><text x="87.174" y="1.67" class="f">provisioning</text><text x="100.2" y="1.67" class="f">but</text><text x="104.208" y="1.67" class="f">will</text><text x="109.218" y="1.67" class="f">not</text><text x="113.226" y="1.67" class="f">boot.</text></symbol><symbol id="a"><path fill="transparent" d="M0 0h120v30H0z"/></symbol></defs><path class="a" d="M0 0h120v65.13H0z"/><g style="animation-duration:16.449577s;animation-iteration-count:infinite;animation-name:k;animation-timing-function:steps(1,end)"><svg width="10440"><svg><use xlink:href="#a"/></svg><svg x="120"><use xlink:href="#a"/><text y="1.67" class="f">bash-3.2$</text></svg><svg x="240"><use xlink:href="#a"/><text y="1.67" class="f">bash-3.2$</text><text x="10.02" y="1.67" class="f">l</text></svg><svg x="360"><use xlink:href="#a"/><text y="1.67" class="f">bash-3.2$</text><text x="10.02" y="1.67" class="f">li</text></svg><svg x="480"><use xlink:href="#a"/><text y="1.67" class="f">bash-3.2$</text><text x="10.02" y="1.67" class="f">liq</text></svg><svg x="600"><use xlink:href="#a"/><text y="1.67" class="f">bash-3.2$</text><text x="10.02" y="1.67" class="f">liqu</text></svg><svg x="720"><use xlink:href="#a"/><text y="1.67" class="f">bash-3.2$</text><text x="10.02" y="1.67" class="f">liqui</text></svg><svg x="840"><use xlink:href="#a"/><use xlink:href="#1"/></svg><svg x="960"><use xlink:href="#a"/><use xlink:href="#1"/></svg><svg x="1080"><use xlink:href="#a"/><text y="1.67" class="f">bash-3.2$</text><text x="10.02" y="1.67" class="f">liquid</text><text x="17.034" y="1.67" class="f">c</text></svg><svg x="1200"><use xlink:href="#a"/><text y="1.67" class="f">bash-3.2$</text><text x="10.02" y="1.67" class="f">liquid</text><text x="17.034" y="1.67" class="f">cr</text></svg><svg x="1320"><use xlink:href="#a"/><text y="1.67" class="f">bash-3.2$</text><text x="10.02" y="1.67" class="f">liquid</text><text x="17.034" y="1.67" class="f">cre</text></svg><svg x="1440"><use xlink:href="#a"/><text y="1.67" class="f">bash-3.2$</text><text x="10.02" y="1.67" class="f">liquid</text><text x="17.034" y="1.67" class="f">crea</text></svg><svg x="1560"><use xlink:href="#a"/><text y="1.67" class="f">bash-3.2$</text><text x="10.02" y="1.67" class="f">liquid</text><text x="17.034" y="1.67" class="f">creat</text></svg><svg x="1680"><use xlink:href="#a"/><use xlink:href="#2"/></svg><svg x="1800"><use xlink:href="#a"/><use xlink:href="#2"/></svg><svg x="1920"><use xlink:href="#a"/><use xlink:href="#2"/><use xlink:href="#3" y="2.171"/></svg><svg x="2040"><use xlink:href="#a"/><use xlink:href="#2"/><use xlink:href="#3" y="2.171"/></svg><svg x="2160"><use xlink:href="#a"/><use xlink:href="#2"/><use xlink:href="#3" y="2.171"/></svg><svg x="2280"><use xlink:href="#a"/><use xlink:href="#2"/></svg><svg x="2400"><use xlink:href="#a"/><use xlink:href="#2"/><use xlink:href="#4" y="2.171"/></svg><svg x="2520"><use xlink:href="#a"/><use xlink:href="#2"/><use xlink:href="#4" y="2.171"/></svg><svg x="2640"><use xlink:href="#a"/><use xlink:href="#2"/><use xlink:href="#4" y="2.171"/></svg><svg x="2760"><use xlink:href="#a"/><use xlink:href="#2"/></svg><svg x="2880"><use xlink:href="#a"/><use xlink:href="#2"/><text y="3.841" class="g">?</text><text x="2.004" y="3.841" class="h">Name:</text><text x="8.016" y="3.841" class="f">LI</text></svg><svg x="3000"><use xlink:href="#a"/><use xlink:href="#2"/></svg><svg x="3120"><use xlink:href="#a"/><use xlink:href="#2"/><text y="3.841" class="g">?</text><text x="2.004" y="3.841" class="h">Name:</text><text x="8.016" y="3.841" class="f">LIN</text></svg><svg x="3240"><use xlink:href="#a"/><use xlink:href="#2"/></svg><svg x="3360"><use xlink:href="#a"/><use xlink:href="#2"/><text y="3.841" class="g">?</text><text x="2.004" y="3.841" class="h">Name:</text><text x="8.016" y="3.841" class="f">LINO</text></svg><svg x="3480"><use xlink:href="#a"/><use xlink:href="#2"/></svg><svg x="3600"><use xlink:href="#a"/><use xlink:href="#2"/><text y="3.841" class="g">?</text><text x="2.004" y="3.841" class="h">Name:</text><text x="8.016" y="3.841" class="f">LINOD</text></svg><svg x="3720"><use xlink:href="#a"/><use xlink:href="#2"/></svg><svg x="3840"><use xlink:href="#a"/><use xlink:href="#2"/><use xlink:href="#5" y="2.171"/></svg><svg x="3960"><use xlink:href="#a"/><use xlink:href="#2"/></svg><svg x="4080"><use xlink:href="#a"/><use xlink:href="#2"/><use xlink:href="#5" y="2.171"/></svg><svg x="4200"><use xlink:href="#a"/><use xlink:href="#2"/><use xlink:href="#5" y="2.171"/></svg><svg x="4320"><use xlink:href="#a"/><use xlink:href="#2"/><use xlink:href="#5" y="2.171"/></svg><svg x="4440"><use xlink:href="#a"/><use xlink:href="#2"/><use xlink:href="#5" y="2.171"/></svg><svg x="4560"><use xlink:href="#a"/><use xlink:href="#2"/><use xlink:href="#5" y="2.171"/><use xlink:href="#6" y="4.342"/><use xlink:href="#7" y="6.513"/><use xlink:href="#8" y="8.684"/><use xlink:href="#9" y="10.855"/><use xlink:href="#10" y="13.026"/><use xlink:href="#11" y="15.197"/><use xlink:href="#12" y="17.368"/><use xlink:href="#13" y="19.539"/><use xlink:href="#14" y="21.71"/></svg><svg x="4680"><use xlink:href="#a"/><use xlink:href="#2"/><use xlink:href="#5" y="2.171"/><use xlink:href="#6" y="4.342"/><use xlink:href="#7" y="6.513"/><use xlink:href="#8" y="8.684"/><use xlink:href="#9" y="10.855"/><use xlink:href="#10" y="13.026"/><use xlink:href="#11" y="15.197"/><use xlink:href="#12" y="17.368"/><use xlink:href="#13" y="19.539"/><use xlink:href="#14" y="21.71"/></svg><svg x="4800"><use xlink:href="#a"/><use xlink:href="#2"/><use xlink:href="#5" y="2.171"/></svg><svg x="4920"><use xlink:href="#a"/><use xlink:href="#2"/><use xlink:href="#5" y="2.171"/><use xlink:href="#15" y="4.342"/></svg><svg x="5040"><use xlink:href="#a"/><use xlink:href="#2"/><use xlink:href="#5" y="2.171"/><use xlink:href="#15" y="4.342"/></svg><svg x="5160"><use xlink:href="#a"/><use xlink:href="#2"/><use xlink:href="#5" y="2.171"/><use xlink:href="#15" y="4.342"/></svg><svg x="5280"><use xlink:href="#a"/><use xlink:href="#2"/><use xlink:href="#5" y="2.171"/><use xlink:href="#15" y="4.342"/></svg><svg x="5400"><use xlink:href="#a"/><use xlink:href="#2"/><use xlink:href="#5" y="2.171"/><use xlink:href="#15" y="4.342"/><use xlink:href="#16" y="6.513"/><use xlink:href="#17" y="8.684"/><use xlink:href="#18" y="10.855"/><use xlink:href="#19" y="13.026"/><use xlink:href="#20" y="15.197"/><use xlink:href="#21" y="17.368"/><use xlink:href="#22" y="19.539"/><use xlink:href="#23" y="21.71"/><use xlink:href="#14" y="23.881"/></svg><svg x="5520"><use xlink:href="#a"/><use xlink:href="#2"/><use xlink:href="#5" y="2.171"/><use xlink:href="#15" y="4.342"/><use xlink:href="#16" y="6.513"/><use xlink:href="#17" y="8.684"/><use xlink:href="#18" y="10.855"/><use xlink:href="#19" y="13.026"/><use xlink:href="#20" y="15.197"/><use xlink:href="#21" y="17.368"/><use xlink:href="#22" y="19.539"/><use xlink:href="#23" y="21.71"/><use xlink:href="#14" y="23.881"/></svg><svg x="5640"><use xlink:href="#a"/><use xlink:href="#2"/><use xlink:href="#5" y="2.171"/><use xlink:href="#15" y="4.342"/></svg><svg x="5760"><use xlink:href="#a"/><use xlink:href="#2"/><use xlink:href="#5" y="2.171"/><use xlink:href="#15" y="4.342"/><use xlink:href="#24" y="6.513"/></svg><svg x="5880"><use xlink:href="#a"/><use xlink:href="#2"/><use xlink:href="#5" y="2.171"/><use xlink:href="#15" y="4.342"/><use xlink:href="#24" y="6.513"/></svg><svg x="6000"><use xlink:href="#a"/><use xlink:href="#2"/><use xlink:href="#5" y="2.171"/><use xlink:href="#15" y="4.342"/><use xlink:href="#24" y="6.513"/><use xlink:href="#25" y="8.684"/><use xlink:href="#26" y="10.855"/><use xlink:href="#27" y="13.026"/><use xlink:href="#28" y="15.197"/><use xlink:href="#29" y="17.368"/><use xlink:href="#30" y="19.539"/><use xlink:href="#31" y="21.71"/><use xlink:href="#32" y="23.881"/><use xlink:href="#14" y="26.052"/></svg><svg x="6120"><use xlink:href="#a"/><use xlink:href="#2"/><use xlink:href="#5" y="2.171"/><use xlink:href="#15" y="4.342"/><use xlink:href="#24" y="6.513"/><use xlink:href="#25" y="8.684"/><use xlink:href="#26" y="10.855"/><use xlink:href="#27" y="13.026"/><use xlink:href="#28" y="15.197"/><use xlink:href="#29" y="17.368"/><use xlink:href="#30" y="19.539"/><use xlink:href="#31" y="21.71"/><use xlink:href="#32" y="23.881"/><use xlink:href="#14" y="26.052"/></svg><svg x="6240"><use xlink:href="#a"/><use xlink:href="#2"/><use xlink:href="#5" y="2.171"/><use xlink:href="#15" y="4.342"/><use xlink:href="#24" y="6.513"/></svg><svg x="6360"><use xlink:href="#a"/><use xlink:href="#2"/><use xlink:href="#5" y="2.171"/><use xlink:href="#15" y="4.342"/><use xlink:href="#24" y="6.513"/><use xlink:href="#33" y="8.684"/></svg><svg x="6480"><use xlink:href="#a"/><use xlink:href="#2"/><use xlink:href="#5" y="2.171"/><use xlink:href="#15" y="4.342"/><use xlink:href="#24" y="6.513"/><use xlink:href="#33" y="8.684"/></svg><svg x="6600"><use xlink:href="#a"/><use xlink:href="#2"/><use xlink:href="#5" y="2.171"/><use xlink:href="#15" y="4.342"/><use xlink:href="#24" y="6.513"/><use xlink:href="#33" y="8.684"/><use xlink:href="#34" y="10.855"/></svg><svg x="6720"><use xlink:href="#a"/><use xlink:href="#2"/><use xlink:href="#5" y="2.171"/><use xlink:href="#15" y="4.342"/><use xlink:href="#24" y="6.513"/><use xlink:href="#33" y="8.684"/><use xlink:href="#34" y="10.855"/></svg><svg x="6840"><use xlink:href="#a"/><use xlink:href="#2"/><use xlink:href="#5" y="2.171"/><use xlink:href="#15" y="4.342"/><use xlink:href="#24" y="6.513"/><use xlink:href="#33" y="8.684"/></svg><svg x="6960"><use xlink:href="#a"/><use xlink:href="#2"/><use xlink:href="#5" y="2.171"/><use xlink:href="#15" y="4.342"/><use xlink:href="#24" y="6.513"/><use xlink:href="#33" y="8.684"/><use xlink:href="#34" y="10.855"/></svg><svg x="7080"><use xlink:href="#a"/><use xlink:href="#2"/><use xlink:href="#5" y="2.171"/><use xlink:href="#15" y="4.342"/><use xlink:href="#24" y="6.513"/><use xlink:href="#33" y="8.684"/></svg><svg x="7200"><use xlink:href="#a"/><use xlink:href="#2"/><use xlink:href="#5" y="2.171"/><use xlink:href="#15" y="4.342"/><use xlink:href="#24" y="6.513"/><use xlink:href="#33" y="8.684"/><use xlink:href="#34" y="10.855"/></svg><svg x="7320"><use xlink:href="#a"/><use xlink:href="#2"/><use xlink:href="#5" y="2.171"/><use xlink:href="#15" y="4.342"/><use xlink:href="#24" y="6.513"/><use xlink:href="#33" y="8.684"/></svg><svg x="7440"><use xlink:href="#a"/><use xlink:href="#2"/><use xlink:href="#5" y="2.171"/><use xlink:href="#15" y="4.342"/><use xlink:href="#24" y="6.513"/><use xlink:href="#33" y="8.684"/><use xlink:href="#34" y="10.855"/></svg><svg x="7560"><use xlink:href="#a"/><use xlink:href="#2"/><use xlink:href="#5" y="2.171"/><use xlink:href="#15" y="4.342"/><use xlink:href="#24" y="6.513"/><use xlink:href="#33" y="8.684"/></svg><svg x="7680"><use xlink:href="#a"/><use xlink:href="#2"/><use xlink:href="#5" y="2.171"/><use xlink:href="#15" y="4.342"/><use xlink:href="#24" y="6.513"/><use xlink:href="#33" y="8.684"/><use xlink:href="#34" y="10.855"/></svg><svg x="7800"><use xlink:href="#a"/><use xlink:href="#2"/><use xlink:href="#5" y="2.171"/><use xlink:href="#15" y="4.342"/><use xlink:href="#24" y="6.513"/><use xlink:href="#33" y="8.684"/><use xlink:href="#34" y="10.855"/></svg><svg x="7920"><use xlink:href="#a"/><use xlink:href="#2"/><use xlink:href="#5" y="2.171"/><use xlink:href="#15" y="4.342"/><use xlink:href="#24" y="6.513"/><use xlink:href="#33" y="8.684"/></svg><svg x="8040"><use xlink:href="#a"/><use xlink:href="#2"/><use xlink:href="#5" y="2.171"/><use xlink:href="#15" y="4.342"/><use xlink:href="#24" y="6.513"/><use xlink:href="#33" y="8.684"/><use xlink:href="#34" y="10.855"/></svg><svg x="8160"><use xlink:href="#a"/><use xlink:href="#2"/><use xlink:href="#5" y="2.171"/><use xlink:href="#15" y="4.342"/><use xlink:href="#24" y="6.513"/><use xlink:href="#33" y="8.684"/><use xlink:href="#34" y="10.855"/></svg><svg x="8280"><use xlink:href="#a"/><use xlink:href="#2"/><use xlink:href="#5" y="2.171"/><use xlink:href="#15" y="4.342"/><use xlink:href="#24" y="6.513"/><use xlink:href="#33" y="8.684"/></svg><svg x="8400"><use xlink:href="#a"/><use xlink:href="#2"/><use xlink:href="#5" y="2.171"/><use xlink:href="#15" y="4.342"/><use xlink:href="#24" y="6.513"/><use xlink:href="#33" y="8.684"/><use xlink:href="#34" y="10.855"/></svg><svg x="8520"><use xlink:href="#a"/><use xlink:href="#2"/><use xlink:href="#5" y="2.171"/><use xlink:href="#15" y="4.342"/><use xlink:href="#24" y="6.513"/><use xlink:href="#33" y="8.684"/></svg><svg x="8640"><use xlink:href="#a"/><use xlink:href="#2"/><use xlink:href="#5" y="2.171"/><use xlink:href="#15" y="4.342"/><use xlink:href="#24" y="6.513"/><use xlink:href="#33" y="8.684"/><use xlink:href="#34" y="10.855"/></svg><svg x="8760"><use xlink:href="#a"/><use xlink:href="#2"/><use xlink:href="#5" y="2.171"/><use xlink:href="#15" y="4.342"/><use xlink:href="#24" y="6.513"/><use xlink:href="#33" y="8.684"/></svg><svg x="8880"><use xlink:href="#a"/><use xlink:href="#2"/><use xlink:href="#5" y="2.171"/><use xlink:href="#15" y="4.342"/><use xlink:href="#24" y="6.513"/><use xlink:href="#33" y="8.684"/><use xlink:href="#35" y="10.855"/></svg><svg x="9000"><use xlink:href="#a"/><use xlink:href="#2"/><use xlink:href="#5" y="2.171"/><use xlink:href="#15" y="4.342"/><use xlink:href="#24" y="6.513"/><use xlink:href="#33" y="8.684"/><use xlink:href="#35" y="10.855"/></svg><svg x="9120"><use xlink:href="#a"/><use xlink:href="#2"/><use xlink:href="#5" y="2.171"/><use xlink:href="#15" y="4.342"/><use xlink:href="#24" y="6.513"/><use xlink:href="#33" y="8.684"/><use xlink:href="#35" y="10.855"/><use xlink:href="#36" y="13.026"/></svg><svg x="9240"><use xlink:href="#a"/><use xlink:href="#2"/><use xlink:href="#5" y="2.171"/><use xlink:href="#15" y="4.342"/><use xlink:href="#24" y="6.513"/><use xlink:href="#33" y="8.684"/><use xlink:href="#35" y="10.855"/><use xlink:href="#36" y="13.026"/></svg><svg x="9360"><use xlink:href="#a"/><use xlink:href="#2"/><use xlink:href="#5" y="2.171"/><use xlink:href="#15" y="4.342"/><use xlink:href="#24" y="6.513"/><use xlink:href="#33" y="8.684"/><use xlink:href="#35" y="10.855"/></svg><svg x="9480"><use xlink:href="#a"/><use xlink:href="#2"/><use xlink:href="#5" y="2.171"/><use xlink:href="#15" y="4.342"/><use xlink:href="#24" y="6.513"/><use xlink:href="#33" y="8.684"/><use xlink:href="#35" y="10.855"/><use xlink:href="#37" y="13.026"/></svg><svg x="9600"><use xlink:href="#a"/><use xlink:href="#2"/><use xlink:href="#5" y="2.171"/><use xlink:href="#15" y="4.342"/><use xlink:href="#24" y="6.513"/><use xlink:href="#33" y="8.684"/><use xlink:href="#35" y="10.855"/><use xlink:href="#37" y="13.026"/></svg><svg x="9720"><use xlink:href="#a"/><use xlink:href="#2"/><use xlink:href="#5" y="2.171"/><use xlink:href="#15" y="4.342"/><use xlink:href="#24" y="6.513"/><use xlink:href="#33" y="8.684"/><use xlink:href="#35" y="10.855"/><use xlink:href="#37" y="13.026"/><use xlink:href="#38" y="15.197"/></svg><svg x="9840"><use xlink:href="#a"/><use xlink:href="#2"/><use xlink:href="#5" y="2.171"/><use xlink:href="#15" y="4.342"/><use xlink:href="#24" y="6.513"/><use xlink:href="#33" y="8.684"/><use xlink:href="#35" y="10.855"/><use xlink:href="#37" y="13.026"/><use xlink:href="#38" y="15.197"/></svg><svg x="9960"><use xlink:href="#a"/><use xlink:href="#2"/><use xlink:href="#5" y="2.171"/><use xlink:href="#15" y="4.342"/><use xlink:href="#24" y="6.513"/><use xlink:href="#33" y="8.684"/><use xlink:href="#35" y="10.855"/><use xlink:href="#37" y="13.026"/></svg><svg x="10080"><use xlink:href="#a"/><use xlink:href="#2"/><use xlink:href="#5" y="2.171"/><use xlink:href="#15" y="4.342"/><use xlink:href="#24" y="6.513"/><use xlink:href="#33" y="8.684"/><use xlink:href="#35" y="10.855"/><use xlink:href="#37" y="13.026"/><use xlink:href="#39" y="15.197"/></svg><svg x="10200"><use xlink:href="#a"/><use xlink:href="#2"/><use xlink:href="#5" y="2.171"/><use xlink:href="#15" y="4.342"/><use xlink:href="#24" y="6.513"/><use xlink:href="#33" y="8.684"/><use xlink:href="#35" y="10.855"/><use xlink:href="#37" y="13.026"/><use xlink:href="#39" y="15.197"/><use xlink:href="#40" y="17.368"/></svg><svg x="10320"><use xlink:href="#a"/><use xlink:href="#2"/><use xlink:href="#5" y="2.171"/><use xlink:href="#15" y="4.342"/><use xlink:href="#24" y="6.513"/><use xlink:href="#33" y="8.684"/><use xlink:href="#35" y="10.855"/><use xlink:href="#37" y="13.026"/><use xlink:href="#39" y="15.197"/><use xlink:href="#40" y="17.368"/></svg></svg></g></g></svg></svg>